<mxfile host="app.diagrams.net" modified="2023-04-26T22:43:26.192Z" agent="Mozilla/5.0 (Windows NT 10.0; Win64; x64) AppleWebKit/537.36 (KHTML, like Gecko) Chrome/112.0.0.0 Safari/537.36" etag="XSH7_MtdpTtkH_8FM04f" version="21.2.3" type="github">
  <diagram name="PÃ¡gina-1" id="-5jiJ6O5D8xDDH33lbmj">
    <mxGraphModel dx="3187" dy="1698" grid="1" gridSize="10" guides="1" tooltips="1" connect="1" arrows="1" fold="1" page="1" pageScale="1" pageWidth="827" pageHeight="1169" math="0" shadow="0">
      <root>
        <mxCell id="0" />
        <mxCell id="1" parent="0" />
        <mxCell id="ZSFOHfEtqHHKLjFi4LGP-78" style="rounded=0;orthogonalLoop=1;jettySize=auto;html=1;entryX=0.5;entryY=0;entryDx=0;entryDy=0;dashed=1;endArrow=open;endFill=0;" edge="1" parent="1" source="ZSFOHfEtqHHKLjFi4LGP-10" target="ZSFOHfEtqHHKLjFi4LGP-28">
          <mxGeometry relative="1" as="geometry" />
        </mxCell>
        <mxCell id="ZSFOHfEtqHHKLjFi4LGP-10" value="ClientEntity" style="swimlane;fontStyle=1;align=center;verticalAlign=top;childLayout=stackLayout;horizontal=1;startSize=26;horizontalStack=0;resizeParent=1;resizeParentMax=0;resizeLast=0;collapsible=1;marginBottom=0;whiteSpace=wrap;html=1;fillColor=default;" vertex="1" parent="1">
          <mxGeometry x="700" y="90" width="160" height="138" as="geometry" />
        </mxCell>
        <mxCell id="ZSFOHfEtqHHKLjFi4LGP-11" value="+ id: long" style="text;strokeColor=none;fillColor=none;align=left;verticalAlign=top;spacingLeft=4;spacingRight=4;overflow=hidden;rotatable=0;points=[[0,0.5],[1,0.5]];portConstraint=eastwest;whiteSpace=wrap;html=1;" vertex="1" parent="ZSFOHfEtqHHKLjFi4LGP-10">
          <mxGeometry y="26" width="160" height="26" as="geometry" />
        </mxCell>
        <mxCell id="ZSFOHfEtqHHKLjFi4LGP-15" value="+ name: string" style="text;strokeColor=none;fillColor=none;align=left;verticalAlign=top;spacingLeft=4;spacingRight=4;overflow=hidden;rotatable=0;points=[[0,0.5],[1,0.5]];portConstraint=eastwest;whiteSpace=wrap;html=1;" vertex="1" parent="ZSFOHfEtqHHKLjFi4LGP-10">
          <mxGeometry y="52" width="160" height="26" as="geometry" />
        </mxCell>
        <mxCell id="ZSFOHfEtqHHKLjFi4LGP-14" value="+ cpf: string" style="text;strokeColor=none;fillColor=none;align=left;verticalAlign=top;spacingLeft=4;spacingRight=4;overflow=hidden;rotatable=0;points=[[0,0.5],[1,0.5]];portConstraint=eastwest;whiteSpace=wrap;html=1;" vertex="1" parent="ZSFOHfEtqHHKLjFi4LGP-10">
          <mxGeometry y="78" width="160" height="26" as="geometry" />
        </mxCell>
        <mxCell id="ZSFOHfEtqHHKLjFi4LGP-16" value="+ accountValue: string" style="text;strokeColor=none;fillColor=none;align=left;verticalAlign=top;spacingLeft=4;spacingRight=4;overflow=hidden;rotatable=0;points=[[0,0.5],[1,0.5]];portConstraint=eastwest;whiteSpace=wrap;html=1;" vertex="1" parent="ZSFOHfEtqHHKLjFi4LGP-10">
          <mxGeometry y="104" width="160" height="26" as="geometry" />
        </mxCell>
        <mxCell id="ZSFOHfEtqHHKLjFi4LGP-12" value="" style="line;strokeWidth=1;fillColor=none;align=left;verticalAlign=middle;spacingTop=-1;spacingLeft=3;spacingRight=3;rotatable=0;labelPosition=right;points=[];portConstraint=eastwest;strokeColor=inherit;" vertex="1" parent="ZSFOHfEtqHHKLjFi4LGP-10">
          <mxGeometry y="130" width="160" height="8" as="geometry" />
        </mxCell>
        <mxCell id="ZSFOHfEtqHHKLjFi4LGP-80" style="edgeStyle=orthogonalEdgeStyle;rounded=0;orthogonalLoop=1;jettySize=auto;html=1;entryX=0.5;entryY=0;entryDx=0;entryDy=0;endArrow=open;endFill=0;dashed=1;" edge="1" parent="1" source="ZSFOHfEtqHHKLjFi4LGP-28" target="ZSFOHfEtqHHKLjFi4LGP-47">
          <mxGeometry relative="1" as="geometry" />
        </mxCell>
        <mxCell id="ZSFOHfEtqHHKLjFi4LGP-28" value="ClientRepository" style="swimlane;fontStyle=1;align=center;verticalAlign=top;childLayout=stackLayout;horizontal=1;startSize=26;horizontalStack=0;resizeParent=1;resizeParentMax=0;resizeLast=0;collapsible=1;marginBottom=0;whiteSpace=wrap;html=1;" vertex="1" parent="1">
          <mxGeometry x="620" y="290" width="320" height="112" as="geometry">
            <mxRectangle x="560" y="280" width="100" height="30" as="alternateBounds" />
          </mxGeometry>
        </mxCell>
        <mxCell id="ZSFOHfEtqHHKLjFi4LGP-30" value="" style="line;strokeWidth=1;fillColor=none;align=left;verticalAlign=middle;spacingTop=-1;spacingLeft=3;spacingRight=3;rotatable=0;labelPosition=right;points=[];portConstraint=eastwest;strokeColor=inherit;" vertex="1" parent="ZSFOHfEtqHHKLjFi4LGP-28">
          <mxGeometry y="26" width="320" height="8" as="geometry" />
        </mxCell>
        <mxCell id="ZSFOHfEtqHHKLjFi4LGP-34" value="+ insertClient(InsertingClientDTO client): void" style="text;strokeColor=none;fillColor=none;align=left;verticalAlign=top;spacingLeft=4;spacingRight=4;overflow=hidden;rotatable=0;points=[[0,0.5],[1,0.5]];portConstraint=eastwest;whiteSpace=wrap;html=1;" vertex="1" parent="ZSFOHfEtqHHKLjFi4LGP-28">
          <mxGeometry y="34" width="320" height="26" as="geometry" />
        </mxCell>
        <mxCell id="ZSFOHfEtqHHKLjFi4LGP-31" value="+ findClientById(long id): ClientEntity" style="text;strokeColor=none;fillColor=none;align=left;verticalAlign=top;spacingLeft=4;spacingRight=4;overflow=hidden;rotatable=0;points=[[0,0.5],[1,0.5]];portConstraint=eastwest;whiteSpace=wrap;html=1;" vertex="1" parent="ZSFOHfEtqHHKLjFi4LGP-28">
          <mxGeometry y="60" width="320" height="26" as="geometry" />
        </mxCell>
        <mxCell id="ZSFOHfEtqHHKLjFi4LGP-32" value="+ updateAccountValueById(long id, long value): void" style="text;strokeColor=none;fillColor=none;align=left;verticalAlign=top;spacingLeft=4;spacingRight=4;overflow=hidden;rotatable=0;points=[[0,0.5],[1,0.5]];portConstraint=eastwest;whiteSpace=wrap;html=1;" vertex="1" parent="ZSFOHfEtqHHKLjFi4LGP-28">
          <mxGeometry y="86" width="320" height="26" as="geometry" />
        </mxCell>
        <mxCell id="ZSFOHfEtqHHKLjFi4LGP-81" style="rounded=0;orthogonalLoop=1;jettySize=auto;html=1;entryX=0.5;entryY=0;entryDx=0;entryDy=0;dashed=1;endArrow=open;endFill=0;" edge="1" parent="1" source="ZSFOHfEtqHHKLjFi4LGP-47" target="ZSFOHfEtqHHKLjFi4LGP-53">
          <mxGeometry relative="1" as="geometry" />
        </mxCell>
        <mxCell id="ZSFOHfEtqHHKLjFi4LGP-47" value="ClientService" style="swimlane;fontStyle=1;align=center;verticalAlign=top;childLayout=stackLayout;horizontal=1;startSize=26;horizontalStack=0;resizeParent=1;resizeParentMax=0;resizeLast=0;collapsible=1;marginBottom=0;whiteSpace=wrap;html=1;" vertex="1" parent="1">
          <mxGeometry x="620" y="490" width="320" height="138" as="geometry" />
        </mxCell>
        <mxCell id="ZSFOHfEtqHHKLjFi4LGP-48" value="+ repository: ClientRepository" style="text;strokeColor=none;fillColor=none;align=left;verticalAlign=top;spacingLeft=4;spacingRight=4;overflow=hidden;rotatable=0;points=[[0,0.5],[1,0.5]];portConstraint=eastwest;whiteSpace=wrap;html=1;" vertex="1" parent="ZSFOHfEtqHHKLjFi4LGP-47">
          <mxGeometry y="26" width="320" height="26" as="geometry" />
        </mxCell>
        <mxCell id="ZSFOHfEtqHHKLjFi4LGP-49" value="" style="line;strokeWidth=1;fillColor=none;align=left;verticalAlign=middle;spacingTop=-1;spacingLeft=3;spacingRight=3;rotatable=0;labelPosition=right;points=[];portConstraint=eastwest;strokeColor=inherit;" vertex="1" parent="ZSFOHfEtqHHKLjFi4LGP-47">
          <mxGeometry y="52" width="320" height="8" as="geometry" />
        </mxCell>
        <mxCell id="ZSFOHfEtqHHKLjFi4LGP-50" value="+ insertClient(InsertingClientDTO client): void" style="text;strokeColor=none;fillColor=none;align=left;verticalAlign=top;spacingLeft=4;spacingRight=4;overflow=hidden;rotatable=0;points=[[0,0.5],[1,0.5]];portConstraint=eastwest;whiteSpace=wrap;html=1;" vertex="1" parent="ZSFOHfEtqHHKLjFi4LGP-47">
          <mxGeometry y="60" width="320" height="26" as="geometry" />
        </mxCell>
        <mxCell id="ZSFOHfEtqHHKLjFi4LGP-52" value="+ findClientById(long id): ClientDTO" style="text;strokeColor=none;fillColor=none;align=left;verticalAlign=top;spacingLeft=4;spacingRight=4;overflow=hidden;rotatable=0;points=[[0,0.5],[1,0.5]];portConstraint=eastwest;whiteSpace=wrap;html=1;" vertex="1" parent="ZSFOHfEtqHHKLjFi4LGP-47">
          <mxGeometry y="86" width="320" height="26" as="geometry" />
        </mxCell>
        <mxCell id="ZSFOHfEtqHHKLjFi4LGP-51" value="+ updateAccountValueById(long id, long value): void" style="text;strokeColor=none;fillColor=none;align=left;verticalAlign=top;spacingLeft=4;spacingRight=4;overflow=hidden;rotatable=0;points=[[0,0.5],[1,0.5]];portConstraint=eastwest;whiteSpace=wrap;html=1;" vertex="1" parent="ZSFOHfEtqHHKLjFi4LGP-47">
          <mxGeometry y="112" width="320" height="26" as="geometry" />
        </mxCell>
        <mxCell id="ZSFOHfEtqHHKLjFi4LGP-82" style="rounded=0;orthogonalLoop=1;jettySize=auto;html=1;entryX=0.5;entryY=0;entryDx=0;entryDy=0;dashed=1;endArrow=open;endFill=0;" edge="1" parent="1" source="ZSFOHfEtqHHKLjFi4LGP-53" target="ZSFOHfEtqHHKLjFi4LGP-61">
          <mxGeometry relative="1" as="geometry" />
        </mxCell>
        <mxCell id="ZSFOHfEtqHHKLjFi4LGP-53" value="ClientBusiness" style="swimlane;fontStyle=1;align=center;verticalAlign=top;childLayout=stackLayout;horizontal=1;startSize=26;horizontalStack=0;resizeParent=1;resizeParentMax=0;resizeLast=0;collapsible=1;marginBottom=0;whiteSpace=wrap;html=1;" vertex="1" parent="1">
          <mxGeometry x="560" y="682" width="440" height="190" as="geometry" />
        </mxCell>
        <mxCell id="ZSFOHfEtqHHKLjFi4LGP-54" value="+ service: ClientService" style="text;strokeColor=none;fillColor=none;align=left;verticalAlign=top;spacingLeft=4;spacingRight=4;overflow=hidden;rotatable=0;points=[[0,0.5],[1,0.5]];portConstraint=eastwest;whiteSpace=wrap;html=1;" vertex="1" parent="ZSFOHfEtqHHKLjFi4LGP-53">
          <mxGeometry y="26" width="440" height="26" as="geometry" />
        </mxCell>
        <mxCell id="ZSFOHfEtqHHKLjFi4LGP-55" value="" style="line;strokeWidth=1;fillColor=none;align=left;verticalAlign=middle;spacingTop=-1;spacingLeft=3;spacingRight=3;rotatable=0;labelPosition=right;points=[];portConstraint=eastwest;strokeColor=inherit;" vertex="1" parent="ZSFOHfEtqHHKLjFi4LGP-53">
          <mxGeometry y="52" width="440" height="8" as="geometry" />
        </mxCell>
        <mxCell id="ZSFOHfEtqHHKLjFi4LGP-56" value="+ newClient(InsertingClientDTO&amp;nbsp;client): void" style="text;strokeColor=none;fillColor=none;align=left;verticalAlign=top;spacingLeft=4;spacingRight=4;overflow=hidden;rotatable=0;points=[[0,0.5],[1,0.5]];portConstraint=eastwest;whiteSpace=wrap;html=1;" vertex="1" parent="ZSFOHfEtqHHKLjFi4LGP-53">
          <mxGeometry y="60" width="440" height="26" as="geometry" />
        </mxCell>
        <mxCell id="ZSFOHfEtqHHKLjFi4LGP-57" value="+ getClient(long id): ClientDTO" style="text;strokeColor=none;fillColor=none;align=left;verticalAlign=top;spacingLeft=4;spacingRight=4;overflow=hidden;rotatable=0;points=[[0,0.5],[1,0.5]];portConstraint=eastwest;whiteSpace=wrap;html=1;" vertex="1" parent="ZSFOHfEtqHHKLjFi4LGP-53">
          <mxGeometry y="86" width="440" height="26" as="geometry" />
        </mxCell>
        <mxCell id="ZSFOHfEtqHHKLjFi4LGP-58" value="+ withdraw(long id, long value): void" style="text;strokeColor=none;fillColor=none;align=left;verticalAlign=top;spacingLeft=4;spacingRight=4;overflow=hidden;rotatable=0;points=[[0,0.5],[1,0.5]];portConstraint=eastwest;whiteSpace=wrap;html=1;" vertex="1" parent="ZSFOHfEtqHHKLjFi4LGP-53">
          <mxGeometry y="112" width="440" height="26" as="geometry" />
        </mxCell>
        <mxCell id="ZSFOHfEtqHHKLjFi4LGP-60" value="+ deposit(long id, long value): void" style="text;strokeColor=none;fillColor=none;align=left;verticalAlign=top;spacingLeft=4;spacingRight=4;overflow=hidden;rotatable=0;points=[[0,0.5],[1,0.5]];portConstraint=eastwest;whiteSpace=wrap;html=1;" vertex="1" parent="ZSFOHfEtqHHKLjFi4LGP-53">
          <mxGeometry y="138" width="440" height="26" as="geometry" />
        </mxCell>
        <mxCell id="ZSFOHfEtqHHKLjFi4LGP-59" value="+ transferBetweenClients(long senderId, long receiverId, long value): void" style="text;strokeColor=none;fillColor=none;align=left;verticalAlign=top;spacingLeft=4;spacingRight=4;overflow=hidden;rotatable=0;points=[[0,0.5],[1,0.5]];portConstraint=eastwest;whiteSpace=wrap;html=1;" vertex="1" parent="ZSFOHfEtqHHKLjFi4LGP-53">
          <mxGeometry y="164" width="440" height="26" as="geometry" />
        </mxCell>
        <mxCell id="ZSFOHfEtqHHKLjFi4LGP-61" value="ClientController" style="swimlane;fontStyle=1;align=center;verticalAlign=top;childLayout=stackLayout;horizontal=1;startSize=26;horizontalStack=0;resizeParent=1;resizeParentMax=0;resizeLast=0;collapsible=1;marginBottom=0;whiteSpace=wrap;html=1;" vertex="1" parent="1">
          <mxGeometry x="540" y="1020" width="480" height="190" as="geometry" />
        </mxCell>
        <mxCell id="ZSFOHfEtqHHKLjFi4LGP-62" value="+ business: ClientBusiness" style="text;strokeColor=none;fillColor=none;align=left;verticalAlign=top;spacingLeft=4;spacingRight=4;overflow=hidden;rotatable=0;points=[[0,0.5],[1,0.5]];portConstraint=eastwest;whiteSpace=wrap;html=1;" vertex="1" parent="ZSFOHfEtqHHKLjFi4LGP-61">
          <mxGeometry y="26" width="480" height="26" as="geometry" />
        </mxCell>
        <mxCell id="ZSFOHfEtqHHKLjFi4LGP-63" value="" style="line;strokeWidth=1;fillColor=none;align=left;verticalAlign=middle;spacingTop=-1;spacingLeft=3;spacingRight=3;rotatable=0;labelPosition=right;points=[];portConstraint=eastwest;strokeColor=inherit;" vertex="1" parent="ZSFOHfEtqHHKLjFi4LGP-61">
          <mxGeometry y="52" width="480" height="8" as="geometry" />
        </mxCell>
        <mxCell id="ZSFOHfEtqHHKLjFi4LGP-64" value="+ newClient(InsertingClientDTO&amp;nbsp;client): APIResponse" style="text;strokeColor=none;fillColor=none;align=left;verticalAlign=top;spacingLeft=4;spacingRight=4;overflow=hidden;rotatable=0;points=[[0,0.5],[1,0.5]];portConstraint=eastwest;whiteSpace=wrap;html=1;" vertex="1" parent="ZSFOHfEtqHHKLjFi4LGP-61">
          <mxGeometry y="60" width="480" height="26" as="geometry" />
        </mxCell>
        <mxCell id="ZSFOHfEtqHHKLjFi4LGP-65" value="+ getClient(long id): APIResponse" style="text;strokeColor=none;fillColor=none;align=left;verticalAlign=top;spacingLeft=4;spacingRight=4;overflow=hidden;rotatable=0;points=[[0,0.5],[1,0.5]];portConstraint=eastwest;whiteSpace=wrap;html=1;" vertex="1" parent="ZSFOHfEtqHHKLjFi4LGP-61">
          <mxGeometry y="86" width="480" height="26" as="geometry" />
        </mxCell>
        <mxCell id="ZSFOHfEtqHHKLjFi4LGP-66" value="+ withdraw(long id, long value): APIResponse" style="text;strokeColor=none;fillColor=none;align=left;verticalAlign=top;spacingLeft=4;spacingRight=4;overflow=hidden;rotatable=0;points=[[0,0.5],[1,0.5]];portConstraint=eastwest;whiteSpace=wrap;html=1;" vertex="1" parent="ZSFOHfEtqHHKLjFi4LGP-61">
          <mxGeometry y="112" width="480" height="26" as="geometry" />
        </mxCell>
        <mxCell id="ZSFOHfEtqHHKLjFi4LGP-67" value="+ deposit(long id, long value): APIResponse" style="text;strokeColor=none;fillColor=none;align=left;verticalAlign=top;spacingLeft=4;spacingRight=4;overflow=hidden;rotatable=0;points=[[0,0.5],[1,0.5]];portConstraint=eastwest;whiteSpace=wrap;html=1;" vertex="1" parent="ZSFOHfEtqHHKLjFi4LGP-61">
          <mxGeometry y="138" width="480" height="26" as="geometry" />
        </mxCell>
        <mxCell id="ZSFOHfEtqHHKLjFi4LGP-68" value="+ transferBetweenClients(long senderId, long receiverId, long value): APIResponse" style="text;strokeColor=none;fillColor=none;align=left;verticalAlign=top;spacingLeft=4;spacingRight=4;overflow=hidden;rotatable=0;points=[[0,0.5],[1,0.5]];portConstraint=eastwest;whiteSpace=wrap;html=1;" vertex="1" parent="ZSFOHfEtqHHKLjFi4LGP-61">
          <mxGeometry y="164" width="480" height="26" as="geometry" />
        </mxCell>
        <mxCell id="ZSFOHfEtqHHKLjFi4LGP-83" style="edgeStyle=orthogonalEdgeStyle;rounded=0;orthogonalLoop=1;jettySize=auto;html=1;entryX=0.5;entryY=0;entryDx=0;entryDy=0;dashed=1;endArrow=open;endFill=0;" edge="1" parent="1" source="ZSFOHfEtqHHKLjFi4LGP-69" target="ZSFOHfEtqHHKLjFi4LGP-61">
          <mxGeometry relative="1" as="geometry" />
        </mxCell>
        <mxCell id="ZSFOHfEtqHHKLjFi4LGP-69" value="APIResponse" style="swimlane;fontStyle=1;align=center;verticalAlign=top;childLayout=stackLayout;horizontal=1;startSize=26;horizontalStack=0;resizeParent=1;resizeParentMax=0;resizeLast=0;collapsible=1;marginBottom=0;whiteSpace=wrap;html=1;" vertex="1" parent="1">
          <mxGeometry x="1081" y="920" width="160" height="86" as="geometry" />
        </mxCell>
        <mxCell id="ZSFOHfEtqHHKLjFi4LGP-70" value="+ code: integer" style="text;strokeColor=none;fillColor=none;align=left;verticalAlign=top;spacingLeft=4;spacingRight=4;overflow=hidden;rotatable=0;points=[[0,0.5],[1,0.5]];portConstraint=eastwest;whiteSpace=wrap;html=1;" vertex="1" parent="ZSFOHfEtqHHKLjFi4LGP-69">
          <mxGeometry y="26" width="160" height="26" as="geometry" />
        </mxCell>
        <mxCell id="ZSFOHfEtqHHKLjFi4LGP-77" value="+ data: generic" style="text;strokeColor=none;fillColor=none;align=left;verticalAlign=top;spacingLeft=4;spacingRight=4;overflow=hidden;rotatable=0;points=[[0,0.5],[1,0.5]];portConstraint=eastwest;whiteSpace=wrap;html=1;" vertex="1" parent="ZSFOHfEtqHHKLjFi4LGP-69">
          <mxGeometry y="52" width="160" height="26" as="geometry" />
        </mxCell>
        <mxCell id="ZSFOHfEtqHHKLjFi4LGP-74" value="" style="line;strokeWidth=1;fillColor=none;align=left;verticalAlign=middle;spacingTop=-1;spacingLeft=3;spacingRight=3;rotatable=0;labelPosition=right;points=[];portConstraint=eastwest;strokeColor=inherit;" vertex="1" parent="ZSFOHfEtqHHKLjFi4LGP-69">
          <mxGeometry y="78" width="160" height="8" as="geometry" />
        </mxCell>
      </root>
    </mxGraphModel>
  </diagram>
</mxfile>
